<?xml version="1.0" encoding="UTF-8"?>
<svg id="Layer_1" xmlns="http://www.w3.org/2000/svg" viewBox="0 0 864 214">
  <defs>
    <style>
      .cls-1 {
        stroke: #141414;
        stroke-width: 2px;
      }

      .cls-1, .cls-2 {
        fill: none;
        stroke-miterlimit: 10;
      }

      .cls-3, .cls-4 {
        fill: #141414;
      }

      .cls-2 {
        stroke: #000;
      }

      .cls-5, .cls-4 {
        font-size: 24px;
      }

      .cls-5, .cls-6 {
        font-family: AkzidenzGroteskPro-Light, 'Akzidenz-Grotesk Pro';
        font-weight: 300;
      }

      .cls-4 {
        font-family: AkzidenzGroteskPro-Super, 'Akzidenz-Grotesk Pro';
      }

      .cls-6 {
        fill: #383838;
        font-size: 100px;
      }

      .cls-7 {
        letter-spacing: .02em;
      }

      .cls-8 {
        letter-spacing: .04em;
      }

      .cls-9 {
        letter-spacing: .01em;
      }
    </style>
  </defs>
  <text class="cls-6" transform="translate(.39 78.27)"><tspan x="0" y="0">A</tspan><tspan class="cls-7" x="64.6" y="0">K</tspan><tspan class="cls-8" x="133.4" y="0">ZI</tspan><tspan class="cls-7" x="223" y="0">D</tspan><tspan class="cls-8" x="293.89" y="0">EN</tspan><tspan x="433.49" y="0">Z</tspan></text>
  <line class="cls-2" x1="503" y1="45.5" x2="780.5" y2="45.5"/>
  <line class="cls-1" x1="663" y1="142.5" x2="780.5" y2="142.5"/>
  <text class="cls-5" transform="translate(788.6 51.34)"><tspan x="0" y="0">Light</tspan></text>
  <text class="cls-4" transform="translate(790.6 148.34)"><tspan x="0" y="0">Su</tspan><tspan class="cls-9" x="33" y="0">p</tspan><tspan x="48.24" y="0">er</tspan></text>
  <path class="cls-3" d="M97.74,121.55l-25.47,7.17c-.77-4.44-2.73-7.79-5.89-10.05-3.16-2.26-7.04-3.39-11.65-3.39-7.51,0-12.95,2.5-16.32,7.49-3.37,4.99-5.06,11.12-5.06,18.37,0,9.56,2.07,16.51,6.21,20.86,4.14,4.35,9.45,6.53,15.94,6.53,4.18,0,7.96-1.04,11.33-3.14,3.37-2.09,5.27-5.27,5.7-9.54h-16.77v-18.18h41.47v50.05h-21.38v-6.27c-7.77,5.8-16.81,8.7-27.14,8.7-4.95,0-9.92-.92-14.91-2.75s-9.75-4.56-14.27-8.19c-4.52-3.63-8.19-8.58-11.01-14.85-2.82-6.27-4.22-13.33-4.22-21.18,0-9.04,1.81-17.26,5.44-24.64,3.63-7.38,9.15-13.38,16.58-17.98,7.42-4.61,16.13-6.91,26.11-6.91,6.4,0,12.63.96,18.69,2.88,6.06,1.92,11.6,5.06,16.64,9.41,5.03,4.35,8.36,9.56,9.98,15.62ZM115.92,97.35h50.82c4.1,0,7.94.45,11.52,1.34s6.98,2.37,10.18,4.42c3.2,2.05,5.74,5.06,7.62,9.02,1.88,3.97,2.82,8.68,2.82,14.14,0,6.06-1.45,11.12-4.35,15.17-2.9,4.05-7.64,7.32-14.21,9.79l22.14,36.48h-32l-17.54-31.87h-8.32v31.87h-28.67v-90.37ZM144.59,137.29h11.9c2.56,0,4.71-.17,6.46-.51,1.75-.34,3.41-1.34,4.99-3.01,1.58-1.66,2.37-3.99,2.37-6.98,0-2.39-.43-4.33-1.28-5.82-.85-1.49-2.09-2.56-3.71-3.2-1.62-.64-3.07-1.04-4.35-1.22-1.28-.17-2.86-.26-4.74-.26h-11.65v20.99ZM305.23,141.77c0,6.23-1,12.2-3.01,17.92-2.01,5.72-4.93,10.92-8.77,15.62-3.84,4.69-8.96,8.43-15.36,11.2-6.4,2.77-13.65,4.16-21.76,4.16-14.59,0-26.26-4.33-35.01-12.99-8.75-8.66-13.12-20.37-13.12-35.14,0-6.14.94-12.03,2.82-17.66,1.88-5.63,4.71-10.79,8.51-15.49,3.8-4.69,8.9-8.43,15.3-11.2,6.4-2.77,13.74-4.16,22.02-4.16s15.06,1.32,21.38,3.97c6.31,2.65,11.39,6.21,15.23,10.69,3.84,4.48,6.76,9.54,8.77,15.17,2,5.63,3.01,11.61,3.01,17.92ZM236.87,142.79c0,7.94,1.73,14.08,5.18,18.43s8.38,6.53,14.78,6.53c5.46,0,10.09-2.11,13.89-6.34,3.8-4.22,5.7-11.03,5.7-20.42,0-8.36-1.88-14.48-5.63-18.37-3.76-3.88-8.41-5.82-13.95-5.82-6.06,0-10.9,2.26-14.53,6.78-3.63,4.52-5.44,10.92-5.44,19.2ZM380.62,119.62h-22.91v68.1h-28.54v-68.1h-23.04v-22.27h74.5v22.27ZM463.18,187.72h-75.39v-90.37h71.55v19.84h-42.88v13.44h40.06v19.58h-40.19v17.92h46.85v19.58ZM555.97,110.41l-18.05,14.98c-2.22-3.33-5.55-5.7-9.98-7.1-4.44-1.41-9-2.11-13.7-2.11-6.83,0-10.24,1.96-10.24,5.89,0,2.05,1.11,3.56,3.33,4.54,2.22.98,6.4,1.98,12.54,3.01,4.1.68,7.38,1.3,9.86,1.86,2.47.56,5.61,1.54,9.41,2.94,3.8,1.41,6.8,3.01,9.02,4.8,2.22,1.79,4.16,4.27,5.82,7.42,1.66,3.16,2.5,6.78,2.5,10.88,0,5.63-1.15,10.6-3.46,14.91-2.3,4.31-5.44,7.74-9.41,10.3-3.97,2.56-8.41,4.48-13.31,5.76-4.91,1.28-10.13,1.92-15.68,1.92-21.59,0-37.21-6.61-46.85-19.84l21.89-14.08c1.96,4.1,5.35,7.1,10.18,9.02,4.82,1.92,9.83,2.88,15.04,2.88,9.04,0,13.57-2.3,13.57-6.91,0-2.47-1.41-4.22-4.22-5.25-2.82-1.02-8.75-2.3-17.79-3.84-20.74-3.67-31.1-12.76-31.1-27.26,0-4.61.85-8.75,2.56-12.42,1.71-3.67,3.88-6.63,6.53-8.9,2.64-2.26,5.76-4.12,9.34-5.57,3.58-1.45,7.1-2.45,10.56-3.01,3.46-.55,6.98-.83,10.56-.83,8.45,0,16.28,1.32,23.49,3.97,7.21,2.65,13.08,6.66,17.6,12.03ZM663.88,187.72h-32.13l-19.97-36.1-13.44,14.72v21.38h-28.54v-90.37h28.54v34.18l28.42-34.18h34.82l-31.36,34.3,33.66,56.06Z"/>
</svg>